<?xml version="1.0" encoding="iso-8859-1"?>
<!-- Generator: Adobe Illustrator 19.0.0, SVG Export Plug-In . SVG Version: 6.00 Build 0)  -->
<svg version="1.1" id="Layer_1" xmlns="http://www.w3.org/2000/svg" xmlns:xlink="http://www.w3.org/1999/xlink" x="0px" y="0px"
	 viewBox="0 0 512 512" style="enable-background:new 0 0 512 512;" xml:space="preserve">
<g>
	<g>
		<path d="M256.196,97.067c-28.723,0-52.087,23.347-52.087,52.079s23.364,52.079,52.087,52.079s52.096-23.356,52.096-52.079
			S284.919,97.067,256.196,97.067z M256.196,175.991c-14.797,0-26.837-12.049-26.837-26.846c0-14.797,12.041-26.846,26.837-26.846
			s26.837,12.049,26.837,26.846S270.993,175.991,256.196,175.991z"/>
	</g>
</g>
<g>
	<g>
		<path d="M328.815,290.842h-7.612l-13.235-72.798c-1.775-9.754-10.274-16.828-20.198-16.828h-31.573h-31.565
			c-9.924,0-18.424,7.074-20.198,16.828l-15.787,86.852c-1.084,5.999,0.529,12.126,4.437,16.802
			c3.908,4.702,9.651,7.373,15.761,7.373h5.709l5.385,67.951c0.862,10.598,9.847,18.876,20.463,18.876h31.573
			c10.641,0,19.627-8.277,20.463-18.876l2.227-28.126h34.133c14.14,0,25.6-11.46,25.6-25.6V316.45
			C354.415,302.31,342.946,290.842,328.815,290.842z M262.178,316.442v26.846c0,7.083,2.884,13.491,7.535,18.125l-2.099,29.252
			h-22.827l-6.904-86.852h-23.364l14.063-77.372h14.985v43.298c0,6.972,5.666,12.621,12.621,12.621
			c6.955,0,12.638-5.649,12.638-12.621v-43.298h14.985l11.699,64.401h-7.74C273.638,290.842,262.178,302.31,262.178,316.442z
			 M328.815,343.296h-41.037V316.45h41.037V343.296z"/>
	</g>
</g>
<g>
	<g>
		<path d="M256,0C114.62,0,0,114.62,0,256s114.62,256,256,256s256-114.62,256-256S397.38,0,256,0z M268.8,485.751V435.2h-25.6
			v50.551C126.387,479.292,32.708,385.613,26.249,268.8H76.8v-25.6H26.249C32.708,126.387,126.387,32.708,243.2,26.249V76.8h25.6
			V26.249c116.813,6.46,210.492,100.139,216.951,216.951H435.2v25.6h50.551C479.292,385.613,385.613,479.292,268.8,485.751z"/>
	</g>
</g>
<g>
</g>
<g>
</g>
<g>
</g>
<g>
</g>
<g>
</g>
<g>
</g>
<g>
</g>
<g>
</g>
<g>
</g>
<g>
</g>
<g>
</g>
<g>
</g>
<g>
</g>
<g>
</g>
<g>
</g>
</svg>
