<svg xmlns="http://www.w3.org/2000/svg" width="16" height="16" viewBox="0 0 16 16">
    <g fill="none" fill-rule="evenodd">
        <g fill="#2F86EB" fill-rule="nonzero">
            <path d="M36 108c-4.411 0-8 3.589-8 8s3.589 8 8 8 8-3.589 8-8-3.589-8-8-8zm1.333 13c0 .184-.149.333-.333.333h-2c-.184 0-.333-.149-.333-.333v-5h-.334c-.184 0-.333-.15-.333-.333v-1.334c0-.184.15-.333.333-.333H37c.184 0 .333.15.333.333V121zM36 113.333c-.735 0-1.333-.598-1.333-1.333s.598-1.333 1.333-1.333 1.333.598 1.333 1.333-.598 1.333-1.333 1.333z" transform="translate(-28 -108)"/>
        </g>
    </g>
</svg>
