<?xml version="1.0" encoding="UTF-8"?>
<svg width="272px" height="480px" viewBox="0 0 272 480" version="1.1" xmlns="http://www.w3.org/2000/svg" xmlns:xlink="http://www.w3.org/1999/xlink">
    <!-- Generator: Sketch 60.1 (88133) - https://sketch.com -->
    <title>smartphone (2)</title>
    <desc>Created with Sketch.</desc>
    <g id="Page-1" stroke="none" stroke-width="1" fill="none" fill-rule="evenodd">
        <g id="Artboard" transform="translate(-875.000000, -856.000000)" fill-rule="nonzero">
            <g id="smartphone-(2)" transform="translate(875.000000, 856.000000)">
                <path d="M240,0 L32,0 C14.327,0 0,14.327 0,32 L0,440 C0.026,462.08 17.92,479.974 40,480 L232,480 C254.08,479.974 271.974,462.08 272,440 L272,32 C272,14.327 257.673,0 240,0 Z M256,440 C256,453.255 245.255,464 232,464 L40,464 C26.745,464 16,453.255 16,440 L16,432 L256,432 L256,440 Z M256,416 L16,416 L16,64 L256,64 L256,416 Z M256,48 L16,48 L16,32 C16,23.163 23.163,16 32,16 L240,16 C248.837,16 256,23.163 256,32 L256,48 Z" id="Shape" fill="#545454"></path>
                <rect id="Rectangle" fill="#545454" x="120" y="440" width="32" height="16"></rect>
                <path d="M132.333413,163.087453 C176.226409,160.99707 212.326396,196.657642 210.962583,240.397657 C209.69027,281.202454 175.653542,313.614614 134.833555,312.991116 C123.266645,312.814626 112.337337,310.015031 102.606926,305.168089 L102.606926,305.168089 L64.7330058,314.141188 C62.6560034,314.633043 60.7703181,312.80233 61.2010529,310.711585 L61.2010529,310.711585 L69.1636791,272.060099 C63.977502,261.904017 61.0375834,250.409799 61.0003461,238.232048 C60.8795388,198.2493 92.3958715,164.989052 132.333413,163.087453 Z M136.001349,179.274185 C120.455476,179.274185 105.467642,185.482046 94.4750439,196.474643 C83.3833519,207.566697 77.2749467,222.313667 77.2749467,237.999864 C77.2749467,247.394656 79.4224725,256.364138 83.6578504,264.658767 L83.6578504,264.658767 L86.2563638,269.747296 L81.3685547,293.474598 L104.589174,287.973055 L109.863596,290.600501 C118.022241,294.664453 126.815595,296.725181 136.000264,296.725181 C151.686099,296.725181 166.433431,290.616776 177.525123,279.525084 C188.517721,268.532848 194.725943,253.545013 194.725943,237.998779 C194.725943,222.312944 188.617177,207.565974 177.525485,196.474282 C166.433793,185.382951 151.687184,179.274185 136.001349,179.274185 Z M107.803953,203.135662 C110.568106,200.797904 114.799144,201.761723 116.263136,205.072703 L116.263136,205.072703 L122.375157,218.89636 C123.178762,220.713692 122.922346,222.825052 121.707175,224.39718 L121.707175,224.39718 L118.605595,228.409776 C117.297839,230.101974 117.121712,232.420564 118.186795,234.275147 C121.878601,240.704343 136.334798,253.557671 143.207025,256.338822 C145.189635,257.14098 147.462656,256.650571 148.960644,255.124374 L148.960644,255.124374 L152.513211,251.5049 C153.904871,250.086839 155.961621,249.545075 157.871537,250.093349 L157.871537,250.093349 L172.398981,254.264713 C175.878855,255.263974 177.410116,259.323948 175.470905,262.381044 C172.626464,266.864881 168.119481,272.341108 162.479785,273.70709 C152.536719,276.115733 137.265344,273.764232 118.195113,255.965229 C101.687953,240.558595 97.3227397,227.727689 98.3538269,217.549184 C98.938628,211.776036 103.749404,206.564904 107.803953,203.135662 Z" id="Combined-Shape" fill="#7AD06D"></path>
            </g>
        </g>
    </g>
</svg>