<?xml version="1.0" encoding="UTF-8"?>
<svg width="272px" height="480px" viewBox="0 0 272 480" version="1.1" xmlns="http://www.w3.org/2000/svg" xmlns:xlink="http://www.w3.org/1999/xlink">
    <!-- Generator: Sketch 60.1 (88133) - https://sketch.com -->
    <title>smartphone</title>
    <desc>Created with Sketch.</desc>
    <g id="Page-1" stroke="none" stroke-width="1" fill="none" fill-rule="evenodd">
        <g id="Artboard" transform="translate(-404.000000, -856.000000)" fill-rule="nonzero">
            <g id="smartphone" transform="translate(404.000000, 856.000000)">
                <path d="M75.2857143,183.999565 C88.6982589,183.999565 99.5714286,194.872734 99.5714286,208.285279 C99.5714286,211.638225 96.8529464,214.356707 93.5,214.356707 C90.1470536,214.356707 87.4285714,211.638225 87.4285714,208.285279 C87.4285714,201.578627 81.9923661,196.142422 75.2857143,196.142422 C68.5790625,196.142422 63.1428571,201.578627 63.1428571,208.285279 C63.1428571,214.991931 68.5790625,220.428136 75.2857143,220.428136 C88.6982589,220.428136 99.5714286,231.301306 99.5714286,244.71385 C99.5714286,258.126395 88.6982589,268.999565 75.2857143,268.999565 C61.8731696,268.999565 51,258.126395 51,244.71385 C51,241.360904 53.7184821,238.642422 57.0714286,238.642422 C60.424375,238.642422 63.1428571,241.360904 63.1428571,244.71385 C63.1428571,251.420502 68.5790625,256.856707 75.2857143,256.856707 C81.9923661,256.856707 87.4285714,251.420502 87.4285714,244.71385 C87.4285714,238.007198 81.9923661,232.570993 75.2857143,232.570993 C61.8731696,232.570993 51,221.697823 51,208.285279 C51,194.872734 61.8731696,183.999565 75.2857143,183.999565 Z M196.714286,183.999565 C210.12683,183.999565 221,194.872734 221,208.285279 C221,211.638225 218.281518,214.356707 214.928571,214.356707 C211.575625,214.356707 208.857143,211.638225 208.857143,208.285279 C208.857143,201.578627 203.420938,196.142422 196.714286,196.142422 C190.007634,196.142422 184.571429,201.578627 184.571429,208.285279 C184.571429,214.991931 190.007634,220.428136 196.714286,220.428136 C210.12683,220.428136 221,231.301306 221,244.71385 C221,258.126395 210.12683,268.999565 196.714286,268.999565 C183.301741,268.999565 172.428571,258.126395 172.428571,244.71385 C172.428571,241.360904 175.147054,238.642422 178.5,238.642422 C181.852946,238.642422 184.571429,241.360904 184.571429,244.71385 C184.571429,251.420502 190.007634,256.856707 196.714286,256.856707 C203.420938,256.856707 208.857143,251.420502 208.857143,244.71385 C208.857143,238.007198 203.420938,232.570993 196.714286,232.570993 C183.301741,232.570993 172.428571,221.697823 172.428571,208.285279 C172.428571,194.872734 183.301741,183.999565 196.714286,183.999565 Z M110.380089,189.911618 C117.13,182.512065 128.600446,181.985368 136,188.735279 C139.318795,185.703359 143.647723,184.015502 148.142857,183.999565 C158.202455,183.999565 166.357143,192.154252 166.357143,202.21385 L166.357143,202.21385 L166.357143,262.928136 C166.357143,266.281082 163.638661,268.999565 160.285714,268.999565 C156.932768,268.999565 154.214286,266.281082 154.214286,262.928136 L154.214286,262.928136 L154.214286,202.21385 C154.214286,198.860904 151.495804,196.142422 148.142857,196.142422 C144.789911,196.142422 142.071429,198.860904 142.071429,202.21385 L142.071429,202.21385 L142.071429,262.928136 C142.071429,266.281082 139.352946,268.999565 136,268.999565 C132.647054,268.999565 129.928571,266.281082 129.928571,262.928136 L129.928571,262.928136 L129.928571,202.21385 C129.928571,198.860904 127.210089,196.142422 123.857143,196.142422 C120.504196,196.142422 117.785714,198.860904 117.785714,202.21385 L117.785714,202.21385 L117.785714,262.928136 C117.785714,266.281082 115.067232,268.999565 111.714286,268.999565 C108.361339,268.999565 105.642686,266.281082 105.642686,262.928136 L105.642686,262.928136 L105.642686,202.21385 C105.623125,197.664073 107.314018,193.272913 110.380089,189.911618 Z" id="Combined-Shape" fill="#F48D3F"></path>
                <path d="M240,0 L32,0 C14.327,0 0,14.327 0,32 L0,440 C0.026,462.08 17.92,479.974 40,480 L232,480 C254.08,479.974 271.974,462.08 272,440 L272,32 C272,14.327 257.673,0 240,0 Z M256,440 C256,453.255 245.255,464 232,464 L40,464 C26.745,464 16,453.255 16,440 L16,432 L256,432 L256,440 Z M256,416 L16,416 L16,64 L256,64 L256,416 Z M256,48 L16,48 L16,32 C16,23.163 23.163,16 32,16 L240,16 C248.837,16 256,23.163 256,32 L256,48 Z" id="Shape" fill="#545454"></path>
                <rect id="Rectangle" fill="#545454" x="120" y="440" width="32" height="16"></rect>
            </g>
        </g>
    </g>
</svg>