<svg width="24" height="24" viewBox="0 0 24 24" fill="none" xmlns="http://www.w3.org/2000/svg">
<path d="M14.3476 2H13.2063V20.9072H14.3476C15.293 20.9072 16.0595 20.1407 16.0595 19.1952V3.71192C16.0595 2.76644 15.293 2 14.3476 2Z" fill="#1A68E5"/>
<path d="M13.2063 2H5.71192C4.76644 2 4 2.76644 4 3.71192V19.1952C4 20.1407 4.76644 20.9072 5.71192 20.9072H13.2063C14.1518 20.9072 14.9182 20.1407 14.9182 19.1952L11.7417 11.4536L14.9182 3.71192C14.9182 2.76644 14.1518 2 13.2063 2Z" fill="#2799FF"/>
<path d="M13.2063 19.7659H14.3476C14.6627 19.7659 14.9182 19.5104 14.9182 19.1952V3.71192C14.9182 3.39678 14.6627 3.14128 14.3476 3.14128H13.2063V19.7659Z" fill="#D4E1EC"/>
<path d="M12.1165 3.14128C11.8138 3.14128 11.5235 3.26153 11.3095 3.47556L10.8368 3.94828C10.6293 4.1547 10.3442 4.28256 10.0297 4.28256C9.71528 4.28256 9.43015 4.1547 9.2235 3.94828C9.22308 3.94828 8.972 3.69739 8.74991 3.47537C8.53588 3.26146 8.24569 3.14128 7.94306 3.14128H5.7119C5.39676 3.14128 5.14127 3.39678 5.14127 3.71192V19.1952C5.14127 19.5104 5.39676 19.7659 5.7119 19.7659H13.2063C13.5214 19.7659 13.7769 19.5104 13.7769 19.1952V3.71192C13.7769 3.39678 13.5214 3.14128 13.2063 3.14128H12.1165Z" fill="#EDF7FF"/>
<circle cx="10.0297" cy="3.14128" r="0.228255" fill="#384F63"/>
<path d="M20.5909 17.4653C20.5909 19.9626 18.5664 21.9871 16.0691 21.9871C13.5717 21.9871 11.5472 19.9626 11.5472 17.4653C11.5472 14.9679 13.5717 12.9434 16.0691 12.9434C18.5664 12.9434 20.5909 14.9679 20.5909 17.4653Z" fill="#DA3838"/>
<path fill-rule="evenodd" clip-rule="evenodd" d="M15.9926 18.2299C16.0469 18.269 16.1097 18.2874 16.1715 18.2874C16.2676 18.2874 16.3626 18.2426 16.423 18.1583C16.5217 18.0198 16.49 17.8274 16.351 17.7284L15.683 17.2511C16.1324 17.1886 16.4801 16.8018 16.4801 16.3348C16.4801 15.8251 16.0649 15.4099 15.5552 15.4099H14.733C14.5628 15.4099 14.4247 15.548 14.4247 15.7182V16.9477V16.9551V17.9791C14.4247 18.1493 14.5628 18.2874 14.733 18.2874C14.9032 18.2874 15.0413 18.1493 15.0413 17.9791V17.5504L15.9926 18.2299ZM15.5552 16.6431H15.0413V16.0265H15.5552C15.725 16.0265 15.8635 16.165 15.8635 16.3348C15.8635 16.5046 15.725 16.6431 15.5552 16.6431Z" fill="#FAFAFA"/>
<path fill-rule="evenodd" clip-rule="evenodd" d="M16.4801 19.2123C16.4801 19.3825 16.6183 19.5206 16.7884 19.5206C16.9586 19.5206 17.0968 19.3825 17.0968 19.2123V18.493H17.6106C18.1204 18.493 18.5356 18.0778 18.5356 17.568C18.5356 17.0583 18.1204 16.6431 17.6106 16.6431H16.7884C16.6183 16.6431 16.4801 16.7812 16.4801 16.9514V19.2123ZM17.6106 17.8764H17.0968V17.2597H17.6106C17.7804 17.2597 17.9189 17.3982 17.9189 17.568C17.9189 17.7379 17.7804 17.8764 17.6106 17.8764Z" fill="#FAFAFA"/>
</svg>
